*************************************************************************************

Love for All and Sharing is the first step to solving all the problems of humanity.

Website I want to share.
             

 scenetime,com

- Latest Releases
- Super Fast Speeds
- Good Community
- Competitions with prizes (yay)
- Love for the Scene


 Credit to EVERYONE for sharing and seeding back
especially to SceneTime where i get all my
downloads.

For more info about this release, open .NFO file with notepad !!!
support scenetime to grow faster.

*************************************************************************************
 
http://lookpic.com/O/i2/61/vn7sNqAG.png


File size                        : 699 MiB
Duration                         : 42mn 12s
Overall bit rate                 : 2 316 Kbps

Video
ID                               : 0
Format                           : MPEG-4 Visual
Format profile                   : Advanced Simple@L5
Format settings, BVOP            : 2
Format settings, QPel            : No
Format settings, GMC             : No warppoints
Format settings, Matrix          : Default (H.263)
Codec ID                         : XVID
Codec ID/Hint                    : XviD
Duration                         : 42mn 12s
Bit rate                         : 1 925 Kbps
Width                            : 720 pixels
Height                           : 400 pixels
Display aspect ratio             : 16:9
Frame rate                       : 23.976 fps
Color space                      : YUV
Chroma subsampling               : 4:2:0
Bit depth                        : 8 bits
Scan type                        : Progressive
Compression mode                 : Lossy
Bits/(Pixel*Frame)               : 0.279
Stream size                      : 581 MiB (83%)
Writing library                  : XviD 1.2.1 (UTC 2008-12-04)

Audio
ID                               : 1
Format                           : AC-3
Format/Info                      : Audio Coding 3
Mode extension                   : CM (complete main)
Codec ID                         : 2000
Duration                         : 42mn 12s
Bit rate mode                    : Constant
Bit rate                         : 384 Kbps
Channel(s)                       : 2 channels
Channel positions                : Front: L R
Sampling rate                    : 48.0 KHz
Bit depth                        : 16 bits
Compression mode                 : Lossy
Stream size                      : 116 MiB (17%)
Alignment                        : Aligned on interleaves
Interleave, duration             : 64 ms (1.53 video frames)
Interleave, preload duration     : 192 ms
Title                            : The.Following.S01E09.720p.HDTV.X264-DIMENSION - [1] 0ms

SCREENS
 
http://lookpic.com/O/i2/584/PnrNOcoT.png 
http://lookpic.com/O/i2/1253/6lojYdyv.png 
http://lookpic.com/O/i2/1548/9ZxWoF49.png 
http://lookpic.com/O/i2/1911/B7TPhvmc.png